<?xml version="1.0" encoding="iso-8859-1"?>
<!-- Generator: Adobe Illustrator 19.0.0, SVG Export Plug-In . SVG Version: 6.00 Build 0)  -->
<svg version="1.1" id="Capa_1" xmlns="http://www.w3.org/2000/svg" xmlns:xlink="http://www.w3.org/1999/xlink" x="0px" y="0px"
	 viewBox="0 0 422.912 422.912" style="enable-background:new 0 0 422.912 422.912;" xml:space="preserve">
<g>
	<g>
		<path d="M370.176,67.584h-25.6V15.36c-0.266-8.37-6.99-15.094-15.36-15.36H86.528C59.382,0,37.376,22.006,37.376,49.152V373.76
			c0,27.146,22.006,49.152,49.152,49.152h283.648c8.483,0,15.36-6.877,15.36-15.36V82.944
			C385.536,74.461,378.659,67.584,370.176,67.584z M215.552,230.912l-36.864-30.208c-5.039-3.037-11.345-3.037-16.384,0
			l-36.864,30.208V98.304h90.112V230.912z M313.856,67.584H86.528c-10.18,0-18.432-8.252-18.432-18.432
			c0-10.18,8.252-18.432,18.432-18.432h227.328V67.584z"/>
	</g>
</g>
<g>
</g>
<g>
</g>
<g>
</g>
<g>
</g>
<g>
</g>
<g>
</g>
<g>
</g>
<g>
</g>
<g>
</g>
<g>
</g>
<g>
</g>
<g>
</g>
<g>
</g>
<g>
</g>
<g>
</g>
</svg>
