<svg width="24" height="24" viewBox="0 0 24 24" fill="none" xmlns="http://www.w3.org/2000/svg">
<path d="M7 9H3V20H7V9Z" fill="#F8F8F8"/>
<path d="M5 7C6.10457 7 7 6.10457 7 5C7 3.89543 6.10457 3 5 3C3.89543 3 3 3.89543 3 5C3 6.10457 3.89543 7 5 7Z" fill="#F8F8F8"/>
<path d="M16.5 8.25C15.826 8.25184 15.161 8.40601 14.555 8.70098C13.9489 8.99596 13.4173 9.42411 13 9.95343V9H9V20H13V13C13 12.4696 13.2107 11.9609 13.5858 11.5858C13.9609 11.2107 14.4696 11 15 11C15.5304 11 16.0391 11.2107 16.4142 11.5858C16.7893 11.9609 17 12.4696 17 13V20H21V12.75C21 11.5565 20.5259 10.4119 19.682 9.56802C18.8381 8.72411 17.6935 8.25 16.5 8.25V8.25Z" fill="#F8F8F8"/>
</svg>
