<svg width="24" height="24" viewBox="0 0 24 24" fill="none" xmlns="http://www.w3.org/2000/svg">
<g clip-path="url(#clip0)">
<path d="M23.79 6.97916L17.29 0.229239C17.078 0.00933132 16.753 -0.0596987 16.4701 0.0541916C16.1861 0.169181 16.0001 0.444202 16.0001 0.750168V4.00025H15.7501C10.3742 4.00025 6.00024 8.37423 6.00024 13.7501V15.2501C6.00024 15.598 6.24524 15.8881 6.58416 15.9672C6.63928 15.9811 6.69421 15.9871 6.74914 15.9871C7.03222 15.9871 7.30321 15.821 7.43413 15.5601C8.84018 12.7471 11.6671 11.0001 14.8121 11.0001H16.0001V14.25C16.0001 14.5562 16.1861 14.8312 16.4701 14.9451C16.7512 15.0601 17.078 14.9901 17.29 14.77L23.79 8.02011C24.07 7.72915 24.07 7.27121 23.79 6.97916V6.97916Z" fill="#F8F8F8"/>
<path d="M21.0001 23.9999H3.0003C1.34633 23.9999 0.000335693 22.6541 0.000335693 20.9999V7.00021C0.000335693 5.34624 1.34633 4.00024 3.0003 4.00024H6.00027C6.55325 4.00024 7.0002 4.4472 7.0002 5.00017C7.0002 5.55314 6.55325 6.0001 6.00027 6.0001H3.0003C2.44825 6.0001 2.00019 6.44815 2.00019 7.00021V20.9999C2.00019 21.552 2.44825 22 3.0003 22H21.0001C21.552 22 22 21.552 22 20.9999V13.0001C22 12.4472 22.447 12 23 12C23.5531 12 24.0001 12.4472 24.0001 13.0001V20.9999C24.0001 22.6541 22.6541 23.9999 21.0001 23.9999V23.9999Z" fill="#F8F8F8"/>
</g>
<defs>
<clipPath id="clip0">
<rect width="24" height="24" fill="white"/>
</clipPath>
</defs>
</svg>
