<svg width="30" height="30" viewBox="0 0 30 30" fill="none" xmlns="http://www.w3.org/2000/svg">
<path d="M15.0037 0H14.9963C6.72563 0 0 6.7275 0 15C0 18.2812 1.0575 21.3225 2.85563 23.7919L0.98625 29.3644L6.75188 27.5213C9.12375 29.0925 11.9531 30 15.0037 30C23.2744 30 30 23.2706 30 15C30 6.72938 23.2744 0 15.0037 0ZM23.7319 21.1819C23.37 22.2037 21.9337 23.0512 20.7881 23.2987C20.0044 23.4656 18.9806 23.5988 15.5344 22.17C11.1262 20.3438 8.2875 15.8644 8.06625 15.5737C7.85438 15.2831 6.285 13.2019 6.285 11.0494C6.285 8.89688 7.37813 7.84875 7.81875 7.39875C8.18063 7.02938 8.77875 6.86062 9.3525 6.86062C9.53812 6.86062 9.705 6.87 9.855 6.8775C10.2956 6.89625 10.5169 6.9225 10.8075 7.61813C11.1694 8.49 12.0506 10.6425 12.1556 10.8638C12.2625 11.085 12.3694 11.385 12.2194 11.6756C12.0788 11.9756 11.955 12.1087 11.7337 12.3637C11.5125 12.6187 11.3025 12.8138 11.0812 13.0875C10.8787 13.3256 10.65 13.5806 10.905 14.0213C11.16 14.4525 12.0412 15.8906 13.3387 17.0456C15.0131 18.5362 16.3706 19.0125 16.8562 19.215C17.2181 19.365 17.6494 19.3294 17.9137 19.0481C18.2494 18.6863 18.6637 18.0863 19.0856 17.4956C19.3856 17.0719 19.7644 17.0194 20.1619 17.1694C20.5669 17.31 22.71 18.3694 23.1506 18.5887C23.5913 18.81 23.8819 18.915 23.9887 19.1006C24.0937 19.2863 24.0937 20.1581 23.7319 21.1819Z" fill="#F8F8F8"/>
</svg>
