<svg width="244" height="244" viewBox="0 0 244 244" fill="none" xmlns="http://www.w3.org/2000/svg">
<path d="M169.586 66.2661C170.9 71.828 174.324 76.9006 179.526 80.1965C184.753 83.4924 190.804 84.3679 196.392 83.1577" stroke="#413D45" stroke-width="2.50846" stroke-miterlimit="10" stroke-linecap="round" stroke-linejoin="round"/>
<path d="M184.109 68.8413C185.139 66.3179 184.264 63.3567 181.869 61.8375C179.474 60.3183 176.41 60.8075 174.582 62.8417" stroke="#413D45" stroke-width="2.50846" stroke-miterlimit="10" stroke-linecap="round" stroke-linejoin="round"/>
<path d="M197.345 77.1839C198.375 74.6605 197.499 71.6993 195.105 70.1801C192.71 68.6866 189.646 69.1501 187.817 71.1843" stroke="#413D45" stroke-width="2.50846" stroke-miterlimit="10" stroke-linecap="round" stroke-linejoin="round"/>
<path d="M128.567 185.177C153.297 185.177 173.346 165.129 173.346 140.399C173.346 115.668 153.297 95.6206 128.567 95.6206C103.836 95.6206 83.7874 115.668 83.7874 140.399C83.7874 165.129 103.836 185.177 128.567 185.177Z" fill="#FF7E1D"/>
<path d="M128.412 135.507C124.498 135.507 121.073 133.163 119.631 129.533C119.271 128.631 119.709 127.627 120.61 127.293C121.511 126.932 122.515 127.37 122.85 128.271C123.751 130.563 125.94 132.056 128.412 132.056C130.884 132.056 133.073 130.563 133.974 128.271C134.335 127.37 135.339 126.932 136.214 127.293C137.116 127.653 137.553 128.657 137.193 129.533C135.751 133.163 132.3 135.507 128.412 135.507Z" fill="#413D45"/>
<path d="M141.39 124.28C136.446 124.28 132.069 121.319 130.266 116.709C129.906 115.808 130.343 114.804 131.245 114.469C132.146 114.109 133.15 114.547 133.485 115.448C134.772 118.718 137.888 120.829 141.39 120.829C144.892 120.829 148.008 118.718 149.295 115.448C149.656 114.547 150.66 114.109 151.536 114.469C152.437 114.83 152.875 115.834 152.514 116.709C150.712 121.319 146.334 124.28 141.39 124.28Z" fill="#413D45"/>
<path d="M115.408 124.28C110.464 124.28 106.087 121.319 104.284 116.709C103.924 115.808 104.362 114.804 105.263 114.469C106.164 114.109 107.168 114.547 107.503 115.448C108.791 118.718 111.906 120.829 115.408 120.829C118.91 120.829 122.026 118.718 123.314 115.448C123.674 114.547 124.678 114.109 125.554 114.469C126.455 114.83 126.893 115.834 126.532 116.709C124.73 121.319 120.352 124.28 115.408 124.28Z" fill="#413D45"/>
<path d="M178.316 111.868L149.965 89.9815C145.999 86.9173 145.253 81.2009 148.317 77.2098L170.204 48.8597C173.269 44.8943 178.985 44.1475 182.976 47.2375L211.327 69.1245C215.293 72.1886 216.039 77.905 212.975 81.8962L191.088 110.246C187.998 114.212 182.307 114.958 178.316 111.868Z" fill="#FFCE00"/>
<path d="M191.551 84.9604C187.096 84.9604 182.719 83.6987 178.882 81.2782C173.552 77.9308 169.818 72.7037 168.376 66.5753C168.222 65.9058 168.634 65.2364 169.303 65.0561C169.973 64.9016 170.642 65.3136 170.822 65.9831C172.11 71.4677 175.457 76.1541 180.221 79.141C184.985 82.1537 190.65 83.1322 196.16 81.9477C196.83 81.7932 197.499 82.231 197.654 82.9005C197.808 83.5699 197.371 84.2394 196.701 84.3939C194.976 84.7802 193.251 84.9604 191.551 84.9604Z" fill="#FFB700"/>
<path d="M184.109 70.1029C183.955 70.1029 183.8 70.0772 183.62 69.9999C182.976 69.7424 182.667 68.9957 182.951 68.352C183.775 66.3435 183.054 64.0518 181.2 62.8931C179.371 61.7344 176.977 62.0691 175.535 63.6656C175.071 64.1806 174.273 64.2321 173.758 63.7686C173.243 63.3051 173.191 62.5069 173.655 61.9919C175.921 59.4684 179.655 58.9534 182.539 60.7559C185.423 62.5584 186.556 66.1633 185.268 69.3047C185.062 69.8197 184.599 70.1029 184.109 70.1029Z" fill="#FFB700"/>
<path d="M197.345 78.4457C197.19 78.4457 197.036 78.4199 196.856 78.3427C196.212 78.0852 195.903 77.3385 196.186 76.6947C197.01 74.6863 196.289 72.3946 194.435 71.2359C192.607 70.0771 190.212 70.4119 188.77 72.0084C188.307 72.5233 187.508 72.5748 186.993 72.1114C186.478 71.6479 186.427 70.8496 186.89 70.3346C189.156 67.8112 192.89 67.2962 195.774 69.0987C198.658 70.9011 199.791 74.506 198.504 77.6475C198.298 78.1367 197.834 78.4457 197.345 78.4457Z" fill="#FFB700"/>
<path d="M54.1233 129.146C70.1934 129.146 83.2208 116.119 83.2208 100.049C83.2208 83.9797 70.1934 70.9526 54.1233 70.9526C38.0532 70.9526 25.0258 83.9797 25.0258 100.049C25.0258 116.119 38.0532 129.146 54.1233 129.146Z" fill="#66C9FF"/>
<path opacity="0.25" d="M25.3348 104.427C25.4636 105.276 25.6181 106.126 25.8498 106.976C29.6608 122.58 45.4198 132.159 61.05 128.322C66.921 126.88 71.9165 123.765 75.676 119.619C48.4841 125.593 33.0083 113.825 25.3348 104.427Z" fill="#0C93F4"/>
<path d="M53.737 104.298C52.3207 104.298 50.956 103.809 49.72 102.856C49.1792 102.418 49.0762 101.646 49.4882 101.105C49.926 100.564 50.6985 100.461 51.2392 100.873C52.2435 101.646 53.4023 101.955 54.4838 101.697C55.6425 101.44 56.621 100.616 57.2648 99.3542C57.5738 98.7362 58.3205 98.4787 58.9385 98.7877C59.5566 99.0967 59.8141 99.8434 59.5051 100.461C58.5265 102.393 56.9558 103.68 55.0503 104.118C54.6383 104.272 54.1748 104.298 53.737 104.298Z" fill="#0C93F4"/>
<path d="M43.334 101.414C41.9178 101.414 40.5273 101.028 39.2913 100.281C37.5145 99.1996 36.2528 97.4744 35.7635 95.4659C35.609 94.7964 36.021 94.1269 36.6905 93.9467C37.36 93.7922 38.0295 94.2042 38.2098 94.8737C38.5445 96.2384 39.3943 97.4229 40.6045 98.1438C41.8148 98.8906 43.231 99.0966 44.6215 98.7618C47.454 98.0666 49.205 95.1827 48.5097 92.3502C48.3552 91.6807 48.7672 91.0113 49.4367 90.831C50.1062 90.6765 50.7757 91.0885 50.956 91.758C51.4452 93.7922 51.1362 95.8779 50.0547 97.6804C48.9732 99.4571 47.248 100.719 45.2395 101.208C44.57 101.337 43.952 101.414 43.334 101.414Z" fill="#0C93F4"/>
<path d="M61.0242 97.0625C59.608 97.0625 58.2175 96.6762 56.9815 95.9295C55.2048 94.848 53.943 93.1228 53.4538 91.1144C53.2993 90.4449 53.7113 89.7754 54.3808 89.5951C55.0503 89.4406 55.7198 89.8526 55.9 90.5221C56.2348 91.8868 57.0845 93.0713 58.2948 93.7923C59.505 94.539 60.9212 94.745 62.3117 94.4103C65.1442 93.715 66.8952 90.8311 66.2 87.9987C66.0455 87.3292 66.4575 86.6597 67.127 86.4795C67.7965 86.325 68.466 86.7369 68.6462 87.4064C69.6762 91.6036 67.1012 95.8265 62.904 96.8565C62.286 96.9852 61.668 97.0625 61.0242 97.0625Z" fill="#0C93F4"/>
<path d="M138.738 197.64C135.622 199.983 135.365 204.669 138.3 207.399C153.081 221.226 175.792 223.054 192.195 210.695C208.598 198.361 213.13 176.01 203.937 157.986C202.109 154.432 197.551 153.351 194.435 155.72L138.738 197.64Z" fill="#66C9FF"/>
<path opacity="0.25" d="M196.701 154.664C205.61 184.302 194.409 207.167 181.38 216.566C185.165 215.201 188.796 213.27 192.169 210.72C208.572 198.386 213.104 176.036 203.911 158.011C202.495 155.256 199.456 153.994 196.701 154.664Z" fill="#0C93F4"/>
<path d="M165.183 195.477C163.149 195.477 161.166 194.499 159.956 192.696C159.647 192.233 159.776 191.615 160.239 191.306C160.703 190.997 161.321 191.125 161.63 191.589C162.943 193.546 165.621 194.087 167.578 192.773C168.531 192.13 169.174 191.177 169.406 190.044C169.638 188.911 169.406 187.778 168.762 186.825C168.453 186.362 168.582 185.744 169.046 185.435C169.509 185.126 170.127 185.255 170.436 185.718C171.363 187.108 171.698 188.782 171.389 190.43C171.08 192.078 170.127 193.494 168.711 194.447C167.604 195.142 166.393 195.477 165.183 195.477Z" fill="#0C93F4"/>
<path d="M178.264 186.722C176.23 186.722 174.247 185.744 173.037 183.941C172.728 183.478 172.857 182.86 173.32 182.551C173.784 182.242 174.402 182.371 174.711 182.834C176.024 184.791 178.702 185.332 180.659 184.018C182.616 182.705 183.157 180.027 181.843 178.07C181.534 177.607 181.663 176.989 182.127 176.68C182.59 176.371 183.208 176.5 183.517 176.963C185.448 179.847 184.676 183.761 181.792 185.692C180.685 186.362 179.474 186.722 178.264 186.722Z" fill="#0C93F4"/>
<path d="M166.883 203.691C161.398 203.691 156.042 201.991 151.639 198.644C151.201 198.309 151.124 197.691 151.458 197.228C151.793 196.79 152.411 196.713 152.875 197.048C160.6 202.918 171.44 203.227 180.53 197.846C185.062 195.168 188.204 191.743 189.826 187.675C191.603 183.297 191.706 178.044 190.186 172.019C190.058 171.478 190.367 170.938 190.907 170.809C191.448 170.68 191.989 170.989 192.118 171.53C195.285 184.096 191.731 193.52 181.534 199.597C176.899 202.326 171.827 203.691 166.883 203.691Z" fill="#0C93F4"/>
<path d="M49.1793 203.073L36.4846 187.031C28.3476 176.731 30.0986 161.642 40.3986 153.505C50.6986 145.368 65.7881 147.119 73.9251 157.419L86.6198 173.461C94.7568 183.761 93.0058 198.85 82.7058 206.987C72.4058 215.123 57.3163 213.347 49.1793 203.073Z" fill="#FFCE00"/>
<path d="M43.5915 151.394C42.4843 152.012 41.4286 152.707 40.4243 153.505C30.1243 161.642 28.3733 176.731 36.5103 187.031L49.205 203.073C52.3208 206.986 56.415 209.69 60.8955 211.055C38.9823 187.52 41.1968 162.286 43.5915 151.394Z" fill="#FFB700"/>
<path d="M68.7235 173.049C67.0498 173.049 65.4275 172.354 64.243 171.092C62.5177 169.212 62.1572 166.431 63.3675 164.165C63.7022 163.547 64.449 163.316 65.067 163.65C65.685 163.985 65.9168 164.732 65.582 165.35C64.8868 166.663 65.0928 168.285 66.097 169.393C67.1013 170.5 68.6978 170.835 70.0883 170.268C70.732 170.011 71.453 170.294 71.7363 170.938C71.9938 171.581 71.7105 172.302 71.0668 172.585C70.32 172.894 69.5218 173.049 68.7235 173.049Z" fill="#FFB700"/>
<path d="M77.8905 183.065C76.2167 183.065 74.5945 182.37 73.41 181.108C71.6847 179.229 71.3242 176.448 72.5345 174.182C72.8692 173.564 73.616 173.332 74.234 173.667C74.852 174.002 75.0837 174.748 74.749 175.366C74.0537 176.679 74.2597 178.302 75.264 179.409C76.2682 180.516 77.8647 180.851 79.2552 180.284C79.899 180.027 80.62 180.31 80.9032 180.954C81.1607 181.598 80.8775 182.319 80.2337 182.602C79.4612 182.885 78.663 183.065 77.8905 183.065Z" fill="#FFB700"/>
<path d="M83.504 192.129C83.4783 192.129 83.4268 192.129 83.401 192.129C75.3928 191.434 68.0025 187.778 62.5693 181.855C57.136 175.933 54.1748 168.234 54.1748 160.2C54.1748 159.505 54.7413 158.938 55.4366 158.938C56.1318 158.938 56.6983 159.505 56.6983 160.2C56.6725 167.59 59.4278 174.697 64.4233 180.156C69.4188 185.615 76.2425 188.988 83.607 189.631C84.3023 189.683 84.8173 190.301 84.74 190.996C84.6885 191.64 84.1478 192.129 83.504 192.129Z" fill="#FFB700"/>
<path d="M126.919 61.6571L97.2803 49.4777C93.804 48.0615 90.096 50.9196 90.611 54.6276L94.8855 86.3766C95.3748 90.0845 99.7266 91.8612 102.688 89.5695L128.052 70C131.013 67.734 130.395 63.0991 126.919 61.6571Z" fill="#FF83C7"/>
<path opacity="0.44" d="M97.2803 49.4777C93.804 48.0615 90.096 50.9196 90.611 54.6276L94.8855 86.3766C95.0658 87.6898 95.7095 88.7713 96.6365 89.4922L101.04 50.9969L97.2803 49.4777Z" fill="#FD66B0"/>
<path d="M164.05 56.842L148.317 77.2098C145.252 81.1752 145.973 86.8916 149.965 89.9815L166.986 103.139C157.922 88.6425 159.982 70.721 164.05 56.842Z" fill="#FFB700"/>
<path d="M198.658 111.971C191.345 117.173 189.62 127.395 194.821 134.682C200.023 141.995 210.246 143.72 217.533 138.519L229.069 130.305C231.129 128.837 231.618 125.979 230.15 123.919L216.58 104.839C215.112 102.779 212.254 102.29 210.194 103.757L198.658 111.971Z" fill="#FEACD5"/>
<path opacity="0.44" d="M196.881 137.051C202.418 142.278 211.095 143.077 217.533 138.519L229.069 130.305C231.129 128.837 231.618 125.979 230.15 123.919L230.073 123.816C219.181 131.773 206.795 138.802 196.881 137.051Z" fill="#FD66B0"/>
</svg>
