<svg width="244" height="244" viewBox="0 0 244 244" fill="none" xmlns="http://www.w3.org/2000/svg">
<path d="M122.917 229.9C162.752 229.9 195.045 227.493 195.045 224.523C195.045 221.553 162.752 219.146 122.917 219.146C83.0823 219.146 50.7897 221.553 50.7897 224.523C50.7897 227.493 83.0823 229.9 122.917 229.9Z" fill="#EBE8E4"/>
<path d="M198.992 130.413C207.653 130.413 214.302 138.385 212.766 147.073C205.057 191.122 167.365 224.55 121.99 224.55C76.6157 224.55 38.9228 191.096 31.2147 147.073C29.7049 138.385 36.3535 130.413 44.9886 130.413H198.992Z" fill="#FFB700"/>
<path d="M198.992 130.412H65.6496C59.0276 133.697 54.8424 141.14 56.2463 149.086C61.491 179.017 78.0197 204.949 101.223 222.139C107.898 223.702 114.865 224.55 122.017 224.55C167.365 224.55 205.084 191.122 212.792 147.073C214.276 138.385 207.627 130.412 198.992 130.412Z" fill="#FFCE00"/>
<path d="M137.857 130.412C150.833 130.412 161.352 119.893 161.352 106.918C161.352 93.942 150.833 83.4231 137.857 83.4231C124.881 83.4231 114.362 93.942 114.362 106.918C114.362 119.893 124.881 130.412 137.857 130.412Z" fill="#0C93F4"/>
<path d="M137.857 83.4497C124.877 83.4497 114.362 93.9653 114.362 106.944C114.362 107.342 114.362 107.712 114.388 108.11L138.413 83.4762C138.228 83.4497 138.042 83.4497 137.857 83.4497Z" fill="#0069FF"/>
<path d="M110.388 162.303C105.17 162.303 100.905 158.039 100.905 152.821C100.905 151.894 101.647 151.152 102.574 151.152C103.501 151.152 104.243 151.894 104.243 152.821C104.243 156.185 106.998 158.939 110.362 158.939C113.726 158.939 116.481 156.185 116.481 152.821C116.481 151.894 117.222 151.152 118.149 151.152C119.076 151.152 119.818 151.894 119.818 152.821C119.871 158.039 115.633 162.303 110.388 162.303Z" fill="#413D45"/>
<path d="M133.592 162.303C128.374 162.303 124.109 158.039 124.109 152.821C124.109 151.894 124.851 151.152 125.778 151.152C126.705 151.152 127.447 151.894 127.447 152.821C127.447 156.185 130.201 158.939 133.565 158.939C136.929 158.939 139.684 156.185 139.684 152.821C139.684 151.894 140.426 151.152 141.353 151.152C142.28 151.152 143.022 151.894 143.022 152.821C143.048 158.039 138.81 162.303 133.592 162.303Z" fill="#413D45"/>
<path d="M121.99 179.149C105.673 179.149 91.1577 168.793 85.8865 153.35C85.5952 152.476 86.0455 151.523 86.9461 151.205C87.8202 150.914 88.7738 151.364 89.0916 152.264C93.9125 166.329 107.13 175.785 122.017 175.785C136.903 175.785 150.121 166.329 154.942 152.264C155.233 151.39 156.187 150.914 157.087 151.205C157.961 151.496 158.438 152.45 158.147 153.35C152.823 168.793 138.307 179.149 121.99 179.149Z" fill="#413D45"/>
<path d="M149.141 64.3518L83.1583 126.598C77.6752 131.763 68.9606 131.525 63.7954 126.042C58.6302 120.559 58.8685 111.844 64.3516 106.679L130.334 44.4331C135.817 39.268 144.532 39.5064 149.697 44.9893C154.862 50.4723 154.624 59.1603 149.141 64.3518Z" fill="#FF7E1D"/>
<path d="M138.916 40.619C145.163 40.619 150.227 35.5552 150.227 29.3088C150.227 23.0623 145.163 17.9985 138.916 17.9985C132.67 17.9985 127.606 23.0623 127.606 29.3088C127.606 35.5552 132.67 40.619 138.916 40.619Z" fill="#FFCE00"/>
</svg>
