<svg width="244" height="244" viewBox="0 0 244 244" fill="none" xmlns="http://www.w3.org/2000/svg">
<path d="M81.889 213.243H42.2324V164.277C42.2324 160.504 45.294 157.448 49.0731 157.448H75.0483C78.8274 157.448 81.889 160.504 81.889 164.277V213.243Z" fill="#FFE14F"/>
<path d="M42.2324 186.933V213.243H58.8078C50.4125 205.317 45.27 195.17 42.2324 186.933Z" fill="#FFCE00"/>
<path d="M121.354 211.381H81.6737V137.37C81.6737 133.598 84.7353 130.542 88.5143 130.542H114.49C118.269 130.542 121.33 133.598 121.33 137.37V211.381H121.354Z" fill="#FFCE00"/>
<path d="M81.6737 165.399V211.357H100.21C89.0645 198.895 83.9699 179.317 81.6737 165.399Z" fill="#FFB700"/>
<path d="M160.508 211.381H120.852V110.774C120.852 107.002 123.913 103.946 127.693 103.946H153.668C157.447 103.946 160.508 107.002 160.508 110.774V211.381Z" fill="#FFB700"/>
<path opacity="0.32" d="M120.852 141.858V211.357H144.364C126.664 190.658 121.761 150.811 120.852 141.858Z" fill="#FFB700"/>
<path d="M199.902 210.855H160.245V78.042C160.245 74.2698 163.307 71.2139 167.086 71.2139H193.061C196.84 71.2139 199.902 74.2698 199.902 78.042V210.855Z" fill="#FFA441"/>
<path opacity="0.32" d="M160.245 99.887V210.855H185.671C166.655 182.994 161.37 118.055 160.245 99.887Z" fill="#FFB700"/>
<path d="M205.858 217.994H38.1424C35.2962 217.994 33 215.702 33 212.861C33 210.02 35.2962 207.728 38.1424 207.728H205.834C208.68 207.728 210.976 210.02 210.976 212.861C211 215.702 208.704 217.994 205.858 217.994Z" fill="#0C93F4"/>
<path d="M179.93 69.9248C191.806 69.9248 201.433 60.3154 201.433 48.4617C201.433 36.6079 191.806 26.9985 179.93 26.9985C168.055 26.9985 158.428 36.6079 158.428 48.4617C158.428 60.3154 168.055 69.9248 179.93 69.9248Z" fill="#FF7E1D"/>
</svg>
