<svg width="48" height="48" viewBox="0 0 48 48" fill="none" xmlns="http://www.w3.org/2000/svg">
<g clip-path="url(#clip0)">
<path d="M35.768 40.1934C36.9188 41.3435 36.9195 43.2116 35.768 44.3627C34.6179 45.5138 32.7505 45.5135 31.5987 44.3627C31.5919 44.3559 31.5868 44.3491 31.5807 44.342L31.5723 44.3495L12.0447 24.8219L12.0528 24.8145C11.5076 24.2797 11.1696 23.536 11.1696 22.712C11.1689 21.7875 11.5956 20.9625 12.2631 20.422L12.2428 20.4023L31.7704 0.87475L31.7788 0.882878C31.7849 0.875766 31.79 0.86967 31.7968 0.863236C32.9483 -0.288233 34.815 -0.288233 35.9665 0.863236C37.1173 2.01335 37.1173 3.88008 35.9665 5.03257C35.9594 5.03934 35.9526 5.04408 35.9458 5.05086L35.9536 5.05899L18.3026 22.712L35.7575 40.1669L35.749 40.174C35.7541 40.1815 35.7612 40.1862 35.768 40.1934Z" fill="#F8F8F8"/>
</g>
<defs>
<clipPath id="clip0">
<rect width="48" height="48" fill="white"/>
</clipPath>
</defs>
</svg>
