<svg width="74" height="74" viewBox="0 0 74 74" fill="none" xmlns="http://www.w3.org/2000/svg">
<path d="M64.7724 11.8257H60.293V2.68765C60.2465 1.22309 59.0699 0.046544 57.6054 0H15.1405C10.3905 0 6.53998 3.85055 6.53998 8.60048V65.3995C6.53998 70.1495 10.3905 74 15.1405 74H64.7724C66.2568 74 67.4601 72.7967 67.4601 71.3123V14.5133C67.4601 13.029 66.2568 11.8257 64.7724 11.8257ZM37.7167 40.4044L31.2664 35.1186C30.3847 34.5872 29.2813 34.5872 28.3995 35.1186L21.9492 40.4044V17.201H37.7167V40.4044V40.4044ZM54.9177 11.8257H15.1405C13.3592 11.8257 11.9153 10.3818 11.9153 8.60048C11.9153 6.81922 13.3592 5.3753 15.1405 5.3753H54.9177V11.8257Z" fill="#F8F8F8"/>
</svg>
