<svg width="462" height="550" viewBox="0 0 462 550" fill="none" xmlns="http://www.w3.org/2000/svg">
<path d="M225.133 207.912C215.57 191.849 192.387 181.985 174.13 186.336C146.643 192.887 145.758 223.409 142.4 246.439C139.821 264.121 134.036 282.344 120.729 294.267C113.058 301.141 103.467 305.402 94.1571 309.809C70.5311 320.991 47.2939 334.079 29.2134 352.956C11.1346 371.833 -1.38099 397.31 0.122227 423.406C0.499639 429.972 1.7652 436.534 4.40386 442.558C10.1678 455.73 22.0459 465.344 34.8136 471.954C52.7543 481.242 73.2453 485.541 93.4071 484.247C112.173 483.04 131.209 476.636 144.446 463.277C163.419 444.13 167.184 415.05 169.495 388.193C171.808 361.337 174.504 332.402 192.202 312.07C197.677 305.782 204.358 300.643 209.902 294.415C226.492 275.774 234.715 247.611 230.501 222.962C229.5 217.12 227.655 212.149 225.133 207.912Z" fill="#00CA72"/>
<path d="M175.983 41.0949C140.81 37.6452 105.789 62.6764 106.677 100.067C107.044 115.488 114.606 129.91 126.92 139.161C142.416 150.806 159.502 148.962 177.56 145.967C200.65 142.135 223.587 145.972 241.975 161.337C252.374 170.027 264.231 190.837 280.902 183.66C287.379 180.872 291.574 173.663 294.88 167.799C299.12 160.283 301.38 152.234 298.517 143.812C292.799 126.997 274.937 119.707 260.375 112.525C249.426 107.124 239.668 100.867 234.204 89.5063C229.669 80.0775 226.243 70.9971 219.095 63.0827C206.677 49.3321 189.07 41.3486 170.619 40.7207C168.348 40.6436 168.351 44.1736 170.619 44.2507C187.379 44.8208 203.309 51.8166 215.011 63.8809C220.479 69.5196 224.496 75.9468 227.643 83.0919C230.661 89.9399 233.269 96.7382 238.542 102.232C248.785 112.907 263.53 116.831 275.914 124.228C282.795 128.34 289.589 133.829 293.44 141.014C299.032 151.447 295.036 161.451 288.99 170.618C286.372 174.586 283.749 178.571 279.167 180.389C272.793 182.916 266.21 179.894 261.297 175.794C254.512 170.134 249.504 162.732 242.497 157.246C231.58 148.697 218.399 143.16 204.655 141.326C187.591 139.05 171.761 145.378 154.858 145.193C137.898 145.007 122.595 134.611 115 119.6C105.746 101.309 110.498 78.1744 123.936 63.2353C137.016 48.6929 156.891 42.7523 175.983 44.6249C178.243 44.8449 178.227 41.3149 175.983 41.0949Z" fill="#00CA72"/>
<path d="M399.579 292.584C379.639 281.029 355.66 282.532 335.611 293.069C314.654 304.083 302.954 322.465 294.057 343.689C284.133 367.358 274.764 395.744 246.521 401.838C224.685 406.55 205.001 415.415 191.542 434.186C179.855 450.483 179.523 472.479 196.055 485.827C211.025 497.914 233.038 495.232 249.787 488.764C258.373 485.448 266.597 480.919 273.616 474.927C283.187 466.755 288.963 455.411 296.257 445.37C313.883 421.105 341.714 415.331 368.36 405.737C392.031 397.214 416.364 382.424 425.182 357.488C433.996 332.564 421.116 306.092 399.579 292.584C397.649 291.375 395.876 294.426 397.797 295.632C419.449 309.211 431.178 336.274 420.18 360.515C410.274 382.35 387.963 395.047 366.301 402.73C346.533 409.742 325.157 414.429 308.272 427.574C290.809 441.17 284.064 463.911 265.73 476.526C250.361 487.1 228.243 494.483 209.717 488.959C199.007 485.766 190.24 477.358 187.323 466.405C184.442 455.579 188.242 444.785 194.589 435.967C200.873 427.235 209.509 420.13 218.796 414.804C228.757 409.095 238.932 407.369 249.913 404.687C269.267 399.96 280.478 383.396 288.346 366.239C297.996 345.194 304.255 322.226 322.294 306.447C342.87 288.445 373.286 281.426 397.797 295.632C399.766 296.773 401.545 293.724 399.579 292.584Z" fill="#00CA72"/>
<path d="M365.299 421.98C355.763 418.938 344.543 425.674 345.361 441.806C345.777 449.984 349.133 458.65 356.291 462.63C371.855 471.28 379.477 452.216 377.897 439.532C376.675 429.718 371.323 423.899 365.299 421.98Z" fill="#00CA72"/>
<path d="M225.504 66.839C227.12 66.1147 229.8 73.3867 229.8 73.3867C229.8 73.3867 226.906 63.6881 228.029 62.9236C229.802 61.7159 232.916 72.7957 232.916 72.7957C232.916 72.7957 229.832 60.6479 232.164 60.3637C234.498 60.081 236.186 72.4488 236.186 72.4488C236.186 72.4488 235.317 60.717 237.348 60.8229C239.382 60.9289 239.92 76.1041 239.92 76.1041C239.92 76.1041 244.584 70.0013 245.888 70.8701C248.088 72.338 238.723 85.7177 238.723 85.7177L229.929 87.3799C229.929 87.3799 223.89 67.565 225.504 66.839Z" fill="#F35B5C"/>
<path d="M433.296 158.743C432.063 157.473 426.888 163.245 426.888 163.245C426.888 163.245 433.155 155.297 432.393 154.172C431.192 152.396 424.209 161.544 424.209 161.544C424.209 161.544 431.558 151.392 429.495 150.268C427.431 149.144 421.299 160.017 421.299 160.017C421.299 160.017 426.435 149.433 424.506 148.781C422.577 148.129 416.479 162.035 416.479 162.035C416.479 162.035 414.396 154.643 412.863 154.971C410.275 155.523 414.045 171.411 414.045 171.411L421.606 176.202C421.606 176.202 434.529 160.013 433.296 158.743Z" fill="#F35B5C"/>
<path d="M421.837 173.965C417.963 171.307 414.215 168.474 410.476 165.628C410.312 165.885 410.142 166.156 409.954 166.477C403.855 176.786 397.464 186.893 390.143 196.394C388.203 198.911 386.572 201.67 384.477 204.08C382.777 206.035 382.75 206.041 381.112 204.011C377.311 199.299 374.005 194.242 370.866 189.079C367.31 183.231 363.277 177.747 358.297 173.046C351.162 166.306 342.794 161.875 332.938 160.868C327.481 160.309 321.964 160.516 316.477 160.906C315.51 164.94 314.676 169.012 311.811 172.283C308.448 176.12 303.526 176.884 299.103 174.287C295.301 172.057 293.596 168.528 292.705 164.446C292.472 163.383 292.313 162.305 292.118 161.234C286.75 160.974 281.405 160.238 276.015 160.387C274.851 160.42 273.916 159.928 272.951 159.369C267.715 156.345 262.218 153.877 256.51 151.877C248.8 149.179 242.106 144.437 234.728 141.072C233.599 140.556 233.494 139.816 233.706 138.684C235.449 129.416 237.089 120.126 238.839 110.858C240.59 101.592 243.103 92.4839 244.618 83.1627C244.653 82.9507 244.679 82.7499 244.698 82.5604C238.282 82.1043 231.869 81.6915 225.506 80.8645C225.371 81.123 225.241 81.3961 225.116 81.6851C221.416 90.3801 217.958 99.1585 215.085 108.162C212.515 116.216 209.836 124.231 206.886 132.157C205.086 136.993 203.361 141.856 202.404 146.956C201.777 150.295 202.039 153.485 203.399 156.62C205.526 161.525 208.712 165.697 212.159 169.712C221.517 180.61 231.773 188.958 243.164 197.645C244.823 198.911 246.506 200.2 247.767 201.866C253.062 208.866 252.827 225.333 253.576 234.076C254.369 243.331 245.474 251.35 244.173 260.267C243.352 265.899 244.679 271.607 247.56 276.486C250.581 281.601 255.644 287.522 260.75 290.676C268.926 295.729 277.851 298.531 287.377 299.487C292.745 300.023 298.133 300.221 303.482 299.458C312.486 298.173 319.918 293.594 326.806 287.964C327.483 287.41 328.136 286.825 328.801 286.255C329.982 284.678 331.244 283.154 332.33 281.511C336.647 274.979 337.906 267.741 336.865 260.096C335.323 248.782 336.362 237.545 337.565 226.298C337.759 224.491 338.501 223.194 340.297 222.591C341.996 222.021 342.645 223.441 343.525 224.302C350.044 230.669 356.773 236.801 363.749 242.668C367.297 245.652 371.161 248.124 375.337 250.129C379.721 252.235 383.825 251.609 387.772 248.986C390.404 247.239 392.27 244.817 393.832 242.146C398.201 234.667 402.711 227.27 406.464 219.437C410.396 211.229 414.613 203.157 418.572 194.962C421.497 188.907 423.914 182.658 425.136 175.998C424.002 175.351 422.889 174.686 421.837 173.965Z" fill="#181E3A"/>
<path d="M260.75 290.676C268.926 295.729 277.851 298.531 287.377 299.487C292.745 300.023 298.133 300.221 303.482 299.458C312.486 298.173 319.918 293.596 326.806 287.964C327.482 287.41 328.136 286.825 328.801 286.255C331.803 292.081 335.365 297.614 337.001 304.106C340.912 319.62 338.142 333.642 328.117 346.175C320.209 356.066 311.501 365.161 301.533 373.016C300.6 373.75 299.85 374.719 299.016 375.578C298.21 375.658 297.616 376.117 297.005 376.61C294.453 378.676 291.945 380.807 289.288 382.733C281.125 388.649 273.1 394.768 264.249 399.679C261.002 401.483 261.081 401.656 263.217 404.934C267.109 410.905 271.248 416.717 274.878 422.859C278.164 426.567 280.931 430.67 283.663 434.78C287.369 440.358 290.808 446.115 294.534 451.682C295.831 453.62 296.368 455.313 294.911 457.296C291.455 461.188 288.508 465.45 285.755 469.855C284.258 471.026 283.383 472.704 282.281 474.19C281.504 475.237 280.806 475.314 279.871 474.476C276.937 471.837 273.988 469.214 271.046 466.585C269.005 464.762 267.034 462.855 264.737 461.338C258.615 456.378 252.495 451.41 246.37 446.454C240.411 441.633 234.503 436.749 228.466 432.03C224.412 428.862 220.881 425.052 216.461 422.345C212.427 418.315 208.413 414.263 204.352 410.263C201.522 407.476 199 404.438 196.712 401.203C191.831 394.309 191.857 388.954 196.863 382.211C202.249 374.955 208.484 368.444 214.935 362.153C218.791 358.392 222.644 354.637 226.261 350.646C235.041 340.954 244.251 331.671 253.287 322.221C254.493 320.959 255.097 319.742 255.082 317.903C255.01 308.437 257.342 299.437 260.75 290.676Z" fill="#F89B1B"/>
<path d="M216.461 422.345C220.881 425.052 224.412 428.862 228.466 432.031C234.503 436.749 240.411 441.633 246.37 446.454C252.495 451.41 258.615 456.378 264.738 461.339C264.925 465.196 266.128 468.848 267.042 472.555C270.074 484.873 273.012 497.214 275.517 509.65C276.005 512.079 275.912 512.112 273.667 512.898C272.43 513.333 271.174 513.71 269.928 514.114C264.749 515.718 259.569 517.326 254.39 518.932C252.961 519.478 251.539 520.046 250.1 520.568C247.383 521.551 247.364 521.545 246.341 518.972C244.356 513.979 242.438 508.96 240.405 503.988C236.172 493.64 231.953 483.285 227.592 472.987C222.496 460.948 218.681 448.466 214.841 436.007C213.432 431.441 214.007 426.673 216.461 422.345Z" fill="#F57D1C"/>
<path d="M274.878 422.859C271.248 416.717 267.11 410.905 263.217 404.934C261.081 401.656 261.002 401.483 264.249 399.679C273.1 394.768 281.125 388.649 289.289 382.732C291.945 380.807 294.453 378.676 297.005 376.61C297.616 376.117 298.21 375.658 299.016 375.578C296.668 380.266 294.383 384.986 291.961 389.633C286.756 399.628 281.475 409.58 276.246 419.56C275.694 420.612 274.902 421.58 274.878 422.859Z" fill="#F57D1C"/>
<path d="M254.39 518.932C259.569 517.326 264.749 515.718 269.928 514.114C270.071 515.528 270.2 516.947 270.367 518.358C270.768 521.721 269.992 524.8 267.484 527.085C260.353 533.587 253.682 540.602 245.987 546.478C245.029 547.209 244.089 548.004 242.902 548.328C240.749 548.914 239.432 547.891 239.584 545.644C239.777 542.803 241.197 540.413 242.832 538.207C244.001 536.63 245.355 535.154 246.8 533.822C250.911 530.031 252.532 524.814 254.894 520.02C255.129 519.543 254.724 519.221 254.39 518.932Z" fill="#F25A3C"/>
<path d="M285.755 469.855C288.508 465.45 291.455 461.188 294.911 457.296C299.336 459.969 301.083 463.879 300.386 468.972C299.882 472.658 299.524 476.361 298.984 480.041C298.456 483.628 298.271 487.224 298.351 490.839C298.383 492.28 298.187 493.696 297.701 495.036C296.877 497.302 294.818 497.785 293.043 496.141C291.813 494.999 291.004 493.531 290.58 491.938C290.018 489.828 289.505 487.685 289.239 485.522C288.582 480.18 287.416 474.966 285.755 469.855Z" fill="#F25A3C"/>
<path d="M317.452 126.978C314.969 126.512 312.486 128.396 311.495 131.304C311.312 131.186 311.116 131.044 310.896 130.871C309.589 129.844 308.623 128.618 308.069 127.167C307.783 126.421 307.602 125.617 307.551 124.745C307.496 123.825 307.454 122.892 307.412 121.71C307.404 121.713 307.398 121.718 307.387 121.723C306.136 122.197 305.313 122.934 304.57 123.687C304.329 123.931 303.953 123.072 303.715 123.31C300.322 126.73 297.075 127.145 291.847 127.508C291.192 127.553 290.583 127.177 289.95 127.013C289.512 126.655 289.099 126.311 288.714 125.955C288.357 127.493 288.166 129.115 288.166 130.805C288.166 135.042 289.382 138.899 291.37 141.846C291.401 141.893 291.433 141.938 291.465 141.984C293.328 144.682 295.846 146.584 298.7 147.249C299.28 147.975 299.459 148.892 299.31 150.136C299.233 150.785 299.323 151.457 299.209 152.094C298.528 155.908 297.266 159.286 292.873 160.229C292.39 160.331 292.326 160.863 292.118 161.234C292.313 162.305 292.472 163.383 292.705 164.446C293.596 168.528 295.302 172.057 299.103 174.288C303.526 176.884 308.448 176.12 311.811 172.283C314.676 169.012 315.51 164.941 316.477 160.906C311.169 157.442 308.177 152.627 307.867 146.221C307.846 145.795 307.756 145.36 307.755 144.944C309.759 143.292 311.381 140.936 312.426 138.136C313.104 138.994 313.991 139.609 315.047 139.807C317.845 140.33 320.651 137.883 321.314 134.341C321.977 130.798 320.249 127.503 317.452 126.978Z" fill="#F35B5C"/>
<path d="M320.081 93.7221C316.976 90.9887 313.128 90.6177 309.282 92.4855C305.448 94.3549 303.58 97.4319 303.539 101.706C303.526 103.381 303.781 105.027 304.144 106.877C301.835 105.603 299.341 104.691 296.732 104.336C292.56 103.768 288.087 104.742 284.869 107.457C281.649 110.172 279.913 114.725 281.027 118.785C282.249 123.245 286.427 125.881 290.605 127.18C296.859 129.126 302.342 125.543 307.436 122.319C307.47 123.22 307.505 123.992 307.55 124.745C307.701 127.315 308.911 129.321 310.889 130.874C312.332 132 312.895 132.014 313.734 130.736C313.801 130.612 313.885 130.488 313.966 130.352C314.366 129.706 314.667 128.992 315.01 128.317C315.534 125.762 315.863 123.194 315.767 120.637C322.348 119.979 325.713 115.554 326.496 110.471C327.568 103.655 325.054 98.092 320.081 93.7221Z" fill="#18203C"/>
<path d="M313.525 296.977C324.81 318.642 306.89 342.907 291.677 357.414C277.345 371.078 260.196 381.313 243.254 391.358C242.146 392.015 243.153 393.747 244.264 393.088C264.14 381.302 284.533 369.135 300.02 351.663C313.025 336.994 325.364 315.375 315.254 295.967C314.659 294.823 312.93 295.835 313.525 296.977Z" fill="#F08519"/>
<path d="M238.635 388.05C255.225 412.527 273.108 436.058 292.248 458.597C293.083 459.58 294.493 458.157 293.663 457.181C274.635 434.772 256.857 411.374 240.363 387.04C239.645 385.978 237.911 386.979 238.635 388.05Z" fill="#F08519"/>
<path d="M270.029 522.25C262.149 532.885 251.562 540.691 240.912 548.347C239.877 549.091 240.874 550.829 241.923 550.075C252.864 542.211 263.662 534.185 271.757 523.258C272.525 522.224 270.787 521.223 270.029 522.25Z" fill="#FDE9DD"/>
<path d="M245.711 534.494C248.065 536.339 250.375 538.239 252.638 540.192C253.609 541.032 255.031 539.622 254.054 538.778C251.79 536.822 249.482 534.922 247.128 533.077C246.125 532.292 244.699 533.697 245.711 534.494Z" fill="#FDE9DD"/>
<path d="M247.52 531.229C250.775 533.01 253.948 534.922 257.043 536.972C258.121 537.685 259.125 535.952 258.055 535.242C254.96 533.194 251.787 531.282 248.53 529.501C247.399 528.881 246.387 530.61 247.52 531.229Z" fill="#FDE9DD"/>
<path d="M299.472 475.369C295.562 477.974 291.507 480.32 287.297 482.408C286.142 482.981 287.156 484.709 288.307 484.137C292.517 482.048 296.572 479.703 300.482 477.098C301.55 476.387 300.548 474.652 299.472 475.369Z" fill="#FDE9DD"/>
<path d="M299.912 480.628C295.857 483.108 291.717 485.429 287.487 487.597C286.34 488.186 287.352 489.914 288.498 489.326C292.727 487.157 296.867 484.836 300.922 482.358C302.019 481.687 301.016 479.955 299.912 480.628Z" fill="#FDE9DD"/>
<path d="M300.318 462.936C300.053 468.17 299.7 473.396 299.196 478.613C298.619 484.561 298.711 491.79 295.897 497.173C295.3 498.314 297.028 499.327 297.625 498.183C299.919 493.797 300.092 488.679 300.648 483.824C301.44 476.88 301.968 469.916 302.32 462.936C302.385 461.648 300.383 461.652 300.318 462.936Z" fill="#FDE9DD"/>
<path d="M328.915 104.545C328.915 114.025 322.228 121.71 313.979 121.71C305.729 121.71 299.042 114.025 299.042 104.545C299.042 95.0648 305.729 87.3801 313.979 87.3801C322.228 87.3801 328.915 95.0648 328.915 104.545Z" fill="#18203C"/>
<path d="M303.577 135.869C303.18 138.202 301.178 139.932 298.835 139.816C296.49 139.697 294.67 137.778 294.508 135.416L303.577 135.869Z" fill="white"/>
<path d="M462 325.759C462 330.928 457.81 335.118 452.643 335.118C447.475 335.118 443.285 330.928 443.285 325.759C443.285 320.591 447.475 316.403 452.643 316.403C457.81 316.403 462 320.591 462 325.759Z" fill="#F89B1B"/>
<path d="M165.602 307.313C165.602 310.027 163.402 312.227 160.688 312.227C157.973 312.227 155.773 310.027 155.773 307.313C155.773 304.599 157.973 302.399 160.688 302.399C163.402 302.399 165.602 304.599 165.602 307.313Z" fill="#F89B1B"/>
<path d="M393.756 90.8588C393.756 94.8111 390.552 98.0151 386.6 98.0151C382.647 98.0151 379.443 94.8111 379.443 90.8588C379.443 86.9064 382.647 83.7024 386.6 83.7024C390.552 83.7024 393.756 86.9064 393.756 90.8588Z" fill="#F89B1B"/>
<path d="M360.695 518.223C360.695 520.725 358.665 522.754 356.163 522.754C353.66 522.754 351.632 520.725 351.632 518.223C351.632 515.719 353.66 513.691 356.163 513.691C358.665 513.691 360.695 515.719 360.695 518.223Z" fill="#F89B1B"/>
<path d="M182.092 507.575C182.092 510.466 179.749 512.811 176.857 512.811C173.966 512.811 171.623 510.466 171.623 507.575C171.623 504.683 173.966 502.34 176.857 502.34C179.749 502.34 182.092 504.683 182.092 507.575Z" fill="#F89B1B"/>
<path d="M85.3386 51.1759C85.3386 53.6524 83.331 55.6599 80.8546 55.6599C78.3781 55.6599 76.3706 53.6524 76.3706 51.1759C76.3706 48.6995 78.3781 46.692 80.8546 46.692C83.331 46.692 85.3386 48.6995 85.3386 51.1759Z" fill="#F35B5C"/>
<path d="M139.627 330.004C139.627 332.445 137.65 334.422 135.208 334.422C132.769 334.422 130.79 332.445 130.79 330.004C130.79 327.564 132.769 325.586 135.208 325.586C137.65 325.586 139.627 327.564 139.627 330.004Z" fill="#A358DF"/>
<path d="M443.285 266.042C443.285 268.778 441.067 270.996 438.331 270.996C435.596 270.996 433.378 268.778 433.378 266.042C433.378 263.307 435.596 261.089 438.331 261.089C441.067 261.089 443.285 263.307 443.285 266.042Z" fill="#A358DF"/>
<path d="M313.979 56.1609C313.979 59.0325 311.651 61.3628 308.777 61.3628C305.904 61.3628 303.577 59.0325 303.577 56.1609C303.577 53.2894 305.904 50.9591 308.777 50.9591C311.651 50.9591 313.979 53.2894 313.979 56.1609Z" fill="#F35B5C"/>
<path d="M330.717 490.451C330.717 491.548 329.828 492.439 328.729 492.439C327.631 492.439 326.741 491.548 326.741 490.451C326.741 489.352 327.631 488.461 328.729 488.461C329.828 488.461 330.717 489.352 330.717 490.451Z" fill="#F8ABCF"/>
<path d="M426.938 406.954C426.938 409.33 425.012 411.257 422.634 411.257C420.257 411.257 418.328 409.33 418.328 406.954C418.328 404.576 420.257 402.649 422.634 402.649C425.012 402.649 426.938 404.576 426.938 406.954Z" fill="#A358DF"/>
<path d="M104.834 423.835L107.403 428.534L112.104 431.105L107.403 433.675L104.834 438.376L102.263 433.675L97.5635 431.105L102.263 428.534L104.834 423.835Z" fill="#F8ABCF"/>
<path d="M345.323 16.3367L347.185 19.7382L350.586 21.5996L347.185 23.4593L345.323 26.8608L343.464 23.4593L340.062 21.5996L343.464 19.7382L345.323 16.3367Z" fill="#F8ABCF"/>
<path d="M261.699 0.692488L264.023 4.94519L268.276 7.27068L264.023 9.59618L261.699 13.8489L259.372 9.59618L255.119 7.27068L259.372 4.94519L261.699 0.692488Z" fill="#F8ABCF"/>
<path d="M411.955 468.744L415.193 474.663L421.111 477.9L415.193 481.137L411.955 487.055L408.719 481.137L402.801 477.9L408.719 474.663L411.955 468.744Z" fill="#F8ABCF"/>
</svg>
