<?xml version="1.0" encoding="utf-8"?>
<!-- Generator: Adobe Illustrator 24.0.2, SVG Export Plug-In . SVG Version: 6.00 Build 0)  -->
<svg version="1.1" id="Layer_1" xmlns="http://www.w3.org/2000/svg" xmlns:xlink="http://www.w3.org/1999/xlink" x="0px" y="0px"
	 viewBox="0 0 1440 497" style="enable-background:new 0 0 1440 497;" xml:space="preserve">
<style type="text/css">
	.st0{clip-path:url(#SVGID_2_);}
	.st1{fill:#F5F2ED;}
	.st2{fill:#FFEFA3;}
	.st3{fill:#FFE14F;}
	.st4{fill:#FFCE00;}
	.st5{fill:#F47D31;}
	.st6{fill:none;stroke:#413D45;stroke-width:12.1634;stroke-linecap:round;stroke-linejoin:round;stroke-miterlimit:10;}
	.st7{fill:#FFFFFF;}
</style>
<g>
	<defs>
		<path id="SVGID_1_" d="M0,0h1440v499H0V0z"/>
	</defs>
	<clipPath id="SVGID_2_">
		<use xlink:href="#SVGID_1_"  style="overflow:visible;"/>
	</clipPath>
	<g class="st0">
		<path class="st1" d="M514.8,159.6c-67.9,0.4-169.6,1.4-229.5,2c-36.7,0.4-64.9-35.5-53-70.5c3.7-10.9,10.9-19.2,24.1-21.1
			c26.1-3.7,47.1,16.2,47.1,16.2s-8.6-83.1,63-78.4c46.8,3,50,82.5,50,82.5s-0.5-51.4,40.8-52.6c38.2-1.1,34.5,63.5,34.5,63.5
			S515,74,538.7,83.6c8.4,3.4,13.6,9.8,16.8,17.6C566.8,129.1,544.7,159.4,514.8,159.6z"/>
		<path class="st2" d="M727.5,56c-279.2,0-518.3,171.8-617.1,415.4c-6.1,14.9,4.9,31.3,21,31.3h1192.2c16.2,0,27.1-16.4,21-31.3
			C1245.8,227.8,1006.8,56,727.5,56z"/>
		<path class="st3" d="M727.3,140.5c-222.8,0-413.6,137.2-492.4,331.8c-4.8,11.9,3.9,25,16.8,25h951.3c12.9,0,21.6-13.1,16.8-25
			C1140.9,277.7,950.1,140.5,727.3,140.5z"/>
		<path class="st4" d="M730.1,227.1c-183.8,0-341.5,111.3-409.6,270.1h819.2C1071.6,338.4,913.8,227.1,730.1,227.1z"/>
		<path class="st5" d="M730.1,328.7c-129.4,0-242.3,70.2-302.9,174.6h605.8C972.4,398.9,859.5,328.7,730.1,328.7z"/>
		<path class="st6" d="M670.5,372.3c3.6,10.3,13.5,17.6,25,17.6c11.5,0,21.3-7.4,25-17.6"/>
		<path class="st6" d="M745.4,372.3c3.6,10.3,13.5,17.6,25,17.6c11.5,0,21.3-7.4,25-17.6"/>
		<path class="st6" d="M618.2,392.2C648.4,420,688.7,437,733,437s84.6-17,114.9-44.8"/>
		<path class="st1" d="M209.9,511.8l85.5-30.9c37,0,66.9-29.9,66.9-66.7c0-36.8-30-66.7-66.9-66.7c-7.4,0-14.6,1.3-21.2,3.5
			c-10.6-22.9-33.8-38.8-60.8-38.8c-14.4,0-27.8,4.6-38.7,12.3c-18.5-14.9-42.1-23.9-67.8-23.9c-59.7,0-108.1,48.3-108.1,107.8
			c0,1.9,0.2,3.9,0.3,5.8c-21.1,12.5-35.2,35.4-35.2,61.7c0,13,3.5,25.2,9.6,35.8h253.9"/>
		<path class="st7" d="M538.4,479c-21.9-12.6-47.8,4.2-47.8,4.2s8.9-36.6-30.9-53.8c-39.8-17.2-59.4,11.9-59.4,11.9
			s-16.5-67.6-70.8-54.7s-50,82.9-50,82.9s-20.8-35.7-54.5-16.4c-23.2,13.3-26.5,37.7-25.4,58.7h362.1
			C561.2,498,554.2,488.1,538.4,479z"/>
		<path class="st7" d="M1005.6,464.1c31.7-18.2,69.3,6.1,69.3,6.1s-13-53.2,44.8-78.1c57.8-24.9,86.2,17.3,86.2,17.3
			s24-98.2,102.7-79.5c78.8,18.7,72.6,120.4,72.6,120.4s30.2-51.8,79-23.9c33.7,19.3,38.5,54.8,36.9,85.3h-525
			C972.5,491.7,982.6,477.4,1005.6,464.1z"/>
		<path class="st1" d="M1053.9,211.5c47.3,0.2,118.2,1,160,1.4c25.6,0.3,45.2-24.4,37-48.4c-2.6-7.5-7.6-13.2-16.8-14.5
			c-18.2-2.5-32.8,11.1-32.8,11.1s6-57-43.9-53.8c-32.6,2.1-34.8,56.6-34.8,56.6s0.3-35.3-28.4-36.1c-26.6-0.8-24.1,43.6-24.1,43.6
			s-16.3-18.7-32.8-12.1c-5.9,2.3-9.5,6.7-11.7,12.1C1017.6,190.6,1033,211.4,1053.9,211.5z"/>
	</g>
</g>
</svg>
