<svg width="24" height="24" viewBox="0 0 24 24" fill="none" xmlns="http://www.w3.org/2000/svg">
<path d="M11.9365 7.06879C8.97355 7.06879 6.51852 9.48148 6.51852 12.4868C6.51852 15.4921 8.93122 17.9048 11.9365 17.9048C14.9418 17.9048 17.3545 15.4497 17.3545 12.4868C17.3545 9.52381 14.8995 7.06879 11.9365 7.06879ZM11.9365 15.9577C10.0317 15.9577 8.46561 14.3915 8.46561 12.4868C8.46561 10.582 10.0317 9.01588 11.9365 9.01588C13.8413 9.01588 15.4074 10.582 15.4074 12.4868C15.4074 14.3915 13.8413 15.9577 11.9365 15.9577Z" fill="#F8F8F8"/>
<path d="M17.5661 8.16932C18.2441 8.16932 18.7937 7.61974 18.7937 6.94181C18.7937 6.26387 18.2441 5.71429 17.5661 5.71429C16.8882 5.71429 16.3386 6.26387 16.3386 6.94181C16.3386 7.61974 16.8882 8.16932 17.5661 8.16932Z" fill="#F8F8F8"/>
<path d="M20.7407 3.76719C19.6402 2.62433 18.0741 2.03174 16.2963 2.03174H7.57672C3.89418 2.03174 1.43916 4.48676 1.43916 8.1693V16.8466C1.43916 18.6667 2.03175 20.2328 3.21693 21.3757C4.35979 22.4762 5.8836 23.0264 7.61905 23.0264H16.254C18.0741 23.0264 19.5979 22.4339 20.6984 21.3757C21.8413 20.2751 22.4339 18.709 22.4339 16.8889V8.1693C22.4339 6.39153 21.8413 4.86772 20.7407 3.76719ZM20.5714 16.8889C20.5714 18.2011 20.1058 19.2593 19.3439 19.9788C18.582 20.6984 17.5238 21.0794 16.254 21.0794H7.61905C6.34921 21.0794 5.29101 20.6984 4.5291 19.9788C3.7672 19.2169 3.38625 18.1587 3.38625 16.8466V8.1693C3.38625 6.89946 3.7672 5.84126 4.5291 5.07936C5.24868 4.35978 6.34921 3.97883 7.61905 3.97883H16.3386C17.6085 3.97883 18.6667 4.35978 19.4286 5.12169C20.1481 5.88359 20.5714 6.94179 20.5714 8.1693V16.8889Z" fill="#F8F8F8"/>
</svg>
