<svg width="89" height="89" viewBox="0 0 89 89" fill="none" xmlns="http://www.w3.org/2000/svg">
<path d="M44.5 0C31.5604 0 21.0332 10.5272 21.0332 23.4668C21.0332 36.4064 31.5604 46.9336 44.5 46.9336C57.4396 46.9336 67.9668 36.4064 67.9668 23.4668C67.9668 10.5272 57.4396 0 44.5 0Z" fill="#010101" fill-opacity="0.6"/>
<path d="M73.6972 62.2644C67.2725 55.7409 58.7555 52.1484 49.7148 52.1484H39.2852C30.2447 52.1484 21.7275 55.7409 15.3028 62.2644C8.90956 68.7558 5.38867 77.3245 5.38867 86.3926C5.38867 87.8326 6.5561 89 7.99609 89H81.0039C82.4439 89 83.6113 87.8326 83.6113 86.3926C83.6113 77.3245 80.0904 68.7558 73.6972 62.2644Z" fill="#010101" fill-opacity="0.6"/>
</svg>
