<svg width="24" height="24" viewBox="0 0 24 24" fill="none" xmlns="http://www.w3.org/2000/svg">
<path d="M22.3676 6.37751C21.601 6.71829 20.7759 6.94816 19.9102 7.05103C20.7941 6.52187 21.4719 5.68367 21.7915 4.68376C20.9647 5.1744 20.0495 5.53042 19.0745 5.72262C18.2943 4.89119 17.1822 4.37134 15.9516 4.37134C13.589 4.37134 11.6734 6.28692 11.6734 8.64996C11.6734 8.98482 11.7111 9.31121 11.7843 9.6249C8.22832 9.44625 5.07534 7.74318 2.96502 5.1545C2.59672 5.78612 2.3859 6.52102 2.3859 7.30588C2.3859 8.79008 3.14113 10.0999 4.28921 10.867C3.58817 10.8445 2.92819 10.6519 2.35119 10.3314C2.35077 10.3492 2.35077 10.3674 2.35077 10.3856C2.35077 12.4583 3.82566 14.1872 5.78315 14.5809C5.42416 14.6782 5.04613 14.7307 4.65581 14.7307C4.3798 14.7307 4.11183 14.704 3.85064 14.6537C4.39546 16.3533 5.97534 17.5907 7.84732 17.625C6.38301 18.7727 4.53855 19.4568 2.53365 19.4568C2.18863 19.4568 1.84785 19.4365 1.51299 19.3967C3.40698 20.6112 5.65573 21.319 8.07169 21.319C15.9419 21.319 20.245 14.7997 20.245 9.14568C20.245 8.96026 20.2412 8.77527 20.2332 8.59154C21.0688 7.98956 21.7944 7.23561 22.3676 6.37751Z" fill="#F8F8F8"/>
</svg>
