<svg width="60" height="60" viewBox="0 0 60 60" fill="none" xmlns="http://www.w3.org/2000/svg">
<g clip-path="url(#clip0)">
<path d="M20.625 44.6686C20.3009 44.6686 19.9768 44.5843 19.6876 44.4178C19.1072 44.0827 18.7502 43.4638 18.7502 42.7936V16.8751C18.7502 16.2049 19.1072 15.5878 19.6858 15.2528C20.2662 14.9177 20.9804 14.9122 21.5608 15.251L44.0609 28.2038C44.6413 28.5371 45.0002 29.1578 45.0002 29.828C45.0002 30.4982 44.6432 31.1171 44.0609 31.4522L21.5608 44.4179C21.2714 44.5844 20.9472 44.6686 20.625 44.6686Z" fill="#F8F8F8"/>
<path d="M30.0001 60C13.4583 60 0 46.5417 0 29.9999C0 13.4581 13.4583 0 30.0001 0C46.5419 0 60.0001 13.4583 60.0001 30.0001C60.0001 46.5419 46.5417 60 30.0001 60ZM30.0001 3.75001C15.5256 3.75001 3.75001 15.5255 3.75001 30.0001C3.75001 44.4746 15.5255 56.2501 30.0001 56.2501C44.4746 56.2501 56.25 44.4745 56.25 30.0001C56.25 15.5256 44.4745 3.75001 30.0001 3.75001V3.75001Z" fill="#F8F8F8"/>
</g>
<defs>
<clipPath id="clip0">
<rect width="60" height="60" fill="white"/>
</clipPath>
</defs>
</svg>
