<svg width="44" height="44" viewBox="0 0 44 44" fill="none" xmlns="http://www.w3.org/2000/svg">
<g clip-path="url(#clip0)">
<path d="M22.0001 16C18.69 16 16 18.69 16 22C16 25.31 18.69 28 22.0001 28C25.3101 28 28.0001 25.31 28.0001 22C28.0001 18.69 25.31 16 22.0001 16Z" fill="#F8F8F8"/>
<path d="M22 7C12 7 3.46003 13.2199 0 22C3.46003 30.78 12 37 22 37C32.01 37 40.5401 30.78 44.0001 22C40.5401 13.2199 32.01 7 22 7ZM22 32C16.48 32 12 27.5199 12 21.9999C12 16.4799 16.48 12 22 12C27.5201 12 32.0001 16.48 32.0001 22C32.0001 27.52 27.5201 32 22 32Z" fill="#F8F8F8"/>
</g>
<defs>
<clipPath id="clip0">
<rect width="44" height="44" fill="white"/>
</clipPath>
</defs>
</svg>
